<?xml version="1.0" encoding="UTF-8" standalone="no"?>
<!-- Generator: Adobe Illustrator 19.2.1, SVG Export Plug-In . SVG Version: 6.00 Build 0)  -->

<svg
   xmlns:dc="http://purl.org/dc/elements/1.1/"
   xmlns:cc="http://creativecommons.org/ns#"
   xmlns:rdf="http://www.w3.org/1999/02/22-rdf-syntax-ns#"
   xmlns:svg="http://www.w3.org/2000/svg"
   xmlns="http://www.w3.org/2000/svg"
   xmlns:sodipodi="http://sodipodi.sourceforge.net/DTD/sodipodi-0.dtd"
   xmlns:inkscape="http://www.inkscape.org/namespaces/inkscape"
   version="1.1"
   id="Layer_1"
   x="0px"
   y="0px"
   viewBox="0 0 78.80071 77.699999"
   xml:space="preserve"
   inkscape:version="0.91 r13725"
   sodipodi:docname="CodeDayLogoHeart.svg"
   width="78.800713"
   height="77.699997"><metadata
     id="metadata4484"><rdf:RDF><cc:Work
         rdf:about=""><dc:format>image/svg+xml</dc:format><dc:type
           rdf:resource="http://purl.org/dc/dcmitype/StillImage" /><dc:title></dc:title></cc:Work></rdf:RDF></metadata><defs
     id="defs4482" /><sodipodi:namedview
     pagecolor="#ffffff"
     bordercolor="#666666"
     borderopacity="1"
     objecttolerance="10"
     gridtolerance="10"
     guidetolerance="10"
     inkscape:pageopacity="0"
     inkscape:pageshadow="2"
     inkscape:window-width="1920"
     inkscape:window-height="1011"
     id="namedview4480"
     showgrid="false"
     fit-margin-top="0"
     fit-margin-left="0"
     fit-margin-right="0"
     fit-margin-bottom="0"
     inkscape:zoom="3.139482"
     inkscape:cx="135.52689"
     inkscape:cy="38.600002"
     inkscape:window-x="1920"
     inkscape:window-y="27"
     inkscape:window-maximized="1"
     inkscape:current-layer="Layer_1" /><style
     type="text/css"
     id="style4414">
	.st0{fill:#0B0B0B;}
	.st1{display:none;}
	.st2{display:inline;}
	.st3{fill:#FFFFFF;stroke:#565854;stroke-width:10;}
</style><g
     id="svg1_copy_3_5_"
     inkscape:output_extension="org.inkscape.output.svg.inkscape"
     inkscape:version="0.46"
     sodipodi:docbase="C:\Documents and Settings\Jon Phillips\My Documents\projects\clipart-project\submissions"
     sodipodi:docname="heart_jon_phillips_01.svg"
     sodipodi:version="0.32"
     transform="translate(-2.6,-12.5)"><defs
       id="defs4417" /><sodipodi:namedview
       bordercolor="#666666"
       borderopacity="1.0"
       id="base"
       inkscape:current-layer="layer1"
       inkscape:cx="549.40674"
       inkscape:cy="596.00159"
       inkscape:document-units="px"
       inkscape:guide-bbox="true"
       inkscape:pageopacity="0.0"
       inkscape:pageshadow="2"
       inkscape:window-height="667"
       inkscape:window-width="866"
       inkscape:window-x="88"
       inkscape:window-y="116"
       inkscape:zoom="0.35"
       pagecolor="#ffffff"
       showgrid="false"
       showguides="true" /></g><g
     id="svg1_copy_3"
     inkscape:output_extension="org.inkscape.output.svg.inkscape"
     inkscape:version="0.46"
     sodipodi:docbase="C:\Documents and Settings\Jon Phillips\My Documents\projects\clipart-project\submissions"
     sodipodi:docname="heart_jon_phillips_01.svg"
     sodipodi:version="0.32"
     transform="translate(-2.6,-12.5)"><defs
       id="defs4422" /><sodipodi:namedview
       bordercolor="#666666"
       borderopacity="1.0"
       id="namedview4426"
       inkscape:current-layer="layer1"
       inkscape:cx="549.40674"
       inkscape:cy="596.00159"
       inkscape:document-units="px"
       inkscape:guide-bbox="true"
       inkscape:pageopacity="0.0"
       inkscape:pageshadow="2"
       inkscape:window-height="667"
       inkscape:window-width="866"
       inkscape:window-x="88"
       inkscape:window-y="116"
       inkscape:zoom="0.35"
       pagecolor="#ffffff"
       showgrid="false"
       showguides="true" /></g><g
     id="svg1_copy_3_1_"
     inkscape:output_extension="org.inkscape.output.svg.inkscape"
     inkscape:version="0.46"
     sodipodi:docbase="C:\Documents and Settings\Jon Phillips\My Documents\projects\clipart-project\submissions"
     sodipodi:docname="heart_jon_phillips_01.svg"
     sodipodi:version="0.32"
     transform="translate(-2.6,-12.5)"><defs
       id="defs4429" /><sodipodi:namedview
       bordercolor="#666666"
       borderopacity="1.0"
       id="namedview4433"
       inkscape:current-layer="layer1"
       inkscape:cx="549.40674"
       inkscape:cy="596.00159"
       inkscape:document-units="px"
       inkscape:guide-bbox="true"
       inkscape:pageopacity="0.0"
       inkscape:pageshadow="2"
       inkscape:window-height="667"
       inkscape:window-width="866"
       inkscape:window-x="88"
       inkscape:window-y="116"
       inkscape:zoom="0.35"
       pagecolor="#ffffff"
       showgrid="false"
       showguides="true" /></g><g
     id="svg1_copy_3_2_"
     inkscape:output_extension="org.inkscape.output.svg.inkscape"
     inkscape:version="0.46"
     sodipodi:docbase="C:\Documents and Settings\Jon Phillips\My Documents\projects\clipart-project\submissions"
     sodipodi:docname="heart_jon_phillips_01.svg"
     sodipodi:version="0.32"
     transform="translate(-2.6,-12.5)"><defs
       id="defs4436" /><sodipodi:namedview
       bordercolor="#666666"
       borderopacity="1.0"
       id="namedview4440"
       inkscape:current-layer="layer1"
       inkscape:cx="549.40674"
       inkscape:cy="596.00159"
       inkscape:document-units="px"
       inkscape:guide-bbox="true"
       inkscape:pageopacity="0.0"
       inkscape:pageshadow="2"
       inkscape:window-height="667"
       inkscape:window-width="866"
       inkscape:window-x="88"
       inkscape:window-y="116"
       inkscape:zoom="0.35"
       pagecolor="#ffffff"
       showgrid="false"
       showguides="true" /></g><g
     id="svg1_copy_3_3_"
     inkscape:output_extension="org.inkscape.output.svg.inkscape"
     inkscape:version="0.46"
     sodipodi:docbase="C:\Documents and Settings\Jon Phillips\My Documents\projects\clipart-project\submissions"
     sodipodi:docname="heart_jon_phillips_01.svg"
     sodipodi:version="0.32"
     transform="translate(-2.6,-12.5)"><defs
       id="defs4443" /><sodipodi:namedview
       bordercolor="#666666"
       borderopacity="1.0"
       id="namedview4447"
       inkscape:current-layer="layer1"
       inkscape:cx="549.40674"
       inkscape:cy="596.00159"
       inkscape:document-units="px"
       inkscape:guide-bbox="true"
       inkscape:pageopacity="0.0"
       inkscape:pageshadow="2"
       inkscape:window-height="667"
       inkscape:window-width="866"
       inkscape:window-x="88"
       inkscape:window-y="116"
       inkscape:zoom="0.35"
       pagecolor="#ffffff"
       showgrid="false"
       showguides="true" /></g><path
     class="st0"
     d="m 60.1,40.3 c -2,2 -4.2,3.9 -6.5,6 C 49,50.4 43.9,54.9 39.3,60.5 34.7,55 29.7,50.7 25.3,46.8 22.7,44.5 20.2,42.3 18,40.2 l -7.3,6.9 c 2.4,2.5 5.1,4.8 7.9,7.3 5.7,5 11.6,10.2 16.6,17.3 l 4.2,6 4.1,-6.1 c 4.9,-7.3 10.9,-12.7 16.7,-17.8 2.6,-2.3 5,-4.5 7.3,-6.7 l -7.4,-6.8 z"
     id="path4449"
     inkscape:connector-curvature="0"
     style="fill:#0b0b0b" /><g
     id="svg1_copy_3_4_"
     inkscape:output_extension="org.inkscape.output.svg.inkscape"
     inkscape:version="0.46"
     sodipodi:docbase="C:\Documents and Settings\Jon Phillips\My Documents\projects\clipart-project\submissions"
     sodipodi:docname="heart_jon_phillips_01.svg"
     sodipodi:version="0.32"
     class="st1"
     style="display:none"
     transform="translate(-2.6,-12.5)"><defs
       class="st2"
       id="defs4452" /><sodipodi:namedview
       bordercolor="#666666"
       borderopacity="1.0"
       id="namedview4456"
       inkscape:current-layer="layer1"
       inkscape:cx="549.40674"
       inkscape:cy="596.00159"
       inkscape:document-units="px"
       inkscape:guide-bbox="true"
       inkscape:pageopacity="0.0"
       inkscape:pageshadow="2"
       inkscape:window-height="667"
       inkscape:window-width="866"
       inkscape:window-x="88"
       inkscape:window-y="116"
       inkscape:zoom="0.35"
       pagecolor="#ffffff"
       showgrid="false"
       showguides="true" /><g
       id="layer1_1_"
       transform="translate(-134.06575,-225.79588)"
       inkscape:groupmode="layer"
       inkscape:label="Layer 1"
       class="st2"
       style="display:inline"><path
         id="path7_2_"
         sodipodi:nodetypes="ccccccc"
         class="st3"
         d="m 159.7,237.3 c -10,0 -18.1,8.1 -18.1,18.1 0,20.3 20.5,25.6 34.5,45.7 13.2,-19.9 34.5,-26.1 34.5,-45.7 0,-10 -8.1,-18.1 -18.1,-18.1 -7.2,0 -13.5,4.3 -16.4,10.4 -2.9,-6.1 -9.2,-10.4 -16.4,-10.4 z"
         inkscape:connector-curvature="0"
         style="fill:#ffffff;stroke:#565854;stroke-width:10" /></g></g><path
     class="st0"
     d="M 55.8,0 C 53.1,0 50.5,0.5 48,1.4 l 0,0 c 0,0 -0.1,0 -0.1,0 C 47.7,1.5 47.5,1.5 47.4,1.6 47.1,1.7 46.8,1.8 46.5,2 46.3,2.1 46.2,2.2 46,2.2 45.7,2.3 45.4,2.5 45.1,2.6 44.9,2.7 44.8,2.8 44.6,2.8 44.2,3 43.9,3.2 43.5,3.4 43.4,3.4 43.4,3.5 43.3,3.5 43.1,3.6 43,3.7 42.8,3.8 l 0,12.8 3.9,-3.1 c 0.4,-0.3 0.8,-0.7 1.2,-1 2.2,-1.7 5,-2.6 7.8,-2.6 7.2,0 13.1,5.9 13.1,13.1 0,4.7 -1.5,8.5 -4.1,12 l 7.4,6.7 c 4,-5.1 6.7,-11 6.7,-18.7 C 78.9,10.4 68.5,0 55.8,0 Z"
     id="path4460"
     inkscape:connector-curvature="0"
     style="fill:#0b0b0b" /><path
     class="st0"
     d="m 32.1,13.7 3.8,3.1 0,-12.8 C 35.8,3.9 35.7,3.9 35.6,3.8 35.5,3.7 35.3,3.6 35.2,3.6 34.8,3.4 34.5,3.2 34.1,3 33.9,2.9 33.7,2.8 33.5,2.7 33.3,2.6 33,2.4 32.8,2.3 32.6,2.2 32.4,2.1 32.2,2 32,1.9 31.7,1.8 31.5,1.7 31.3,1.6 31.1,1.5 30.9,1.4 c 0,0 -0.1,0 -0.1,0 l 0,0 C 28.4,0.5 25.8,0.1 23.1,0.1 10.4,0.1 0,10.5 0,23.2 0,30.9 2.5,36.8 6.2,41.8 l 7.4,-6.9 C 11.4,31.5 10,27.9 10,23.2 10,16 15.9,10.1 23.1,10.1 c 2.8,0 5.5,0.9 7.7,2.5 0.4,0.3 0.8,0.6 1.2,1 -0.1,-0.1 0,0 0.1,0.1 -0.1,-0.1 0,-0.1 0,0 z"
     id="path4462"
     inkscape:connector-curvature="0"
     style="fill:#0b0b0b" /></svg>