<?xml version="1.0" encoding="UTF-8" standalone="no"?>
<!-- Generator: Adobe Illustrator 17.1.0, SVG Export Plug-In . SVG Version: 6.00 Build 0)  -->

<svg
   xmlns:dc="http://purl.org/dc/elements/1.1/"
   xmlns:cc="http://creativecommons.org/ns#"
   xmlns:rdf="http://www.w3.org/1999/02/22-rdf-syntax-ns#"
   xmlns:svg="http://www.w3.org/2000/svg"
   xmlns="http://www.w3.org/2000/svg"
   xmlns:xlink="http://www.w3.org/1999/xlink"
   xmlns:sodipodi="http://sodipodi.sourceforge.net/DTD/sodipodi-0.dtd"
   xmlns:inkscape="http://www.inkscape.org/namespaces/inkscape"
   version="1.1"
   id="US"
   x="0px"
   y="0px"
   width="110.095px"
   height="34.016px"
   viewBox="0 0 110.095 34.016"
   enable-background="new 0 0 110.095 34.016"
   xml:space="preserve"
   inkscape:version="0.91 r13725"
   sodipodi:docname="ticket-print.svg"
   inkscape:export-filename="/home/tylermenezes/VCS/StudentRND/Clear/public/assets/img/ticket-print.png"
   inkscape:export-xdpi="105.83566"
   inkscape:export-ydpi="105.83566"><metadata
     id="metadata124"><rdf:RDF><cc:Work
         rdf:about=""><dc:format>image/svg+xml</dc:format><dc:type
           rdf:resource="http://purl.org/dc/dcmitype/StillImage" /><dc:title></dc:title></cc:Work></rdf:RDF></metadata><defs
     id="defs122"><clipPath
       id="SVGID_2_-6"><path
         d="m 33.601,21.437 c 0,0.199 0,0.398 -10e-4,0.597 -0.001,0.168 -0.003,0.335 -0.008,0.503 -0.01,0.365 -0.032,0.733 -0.097,1.094 -0.067,0.367 -0.176,0.708 -0.347,1.041 -0.169,0.327 -0.389,0.627 -0.652,0.886 -0.263,0.26 -0.566,0.477 -0.898,0.644 -0.337,0.169 -0.683,0.277 -1.054,0.343 -0.366,0.065 -0.739,0.087 -1.109,0.096 -0.17,0.004 -0.34,0.007 -0.509,0.007 -0.202,0.001 -0.403,0.001 -0.605,0.001 l -0.168,0 -12.998,0 -2.316,0 c -0.202,0 -0.403,0 -0.605,-0.001 -0.17,-0.001 -0.34,-0.003 -0.509,-0.007 -0.37,-0.01 -0.743,-0.031 -1.109,-0.096 C 10.245,26.479 9.899,26.372 9.562,26.202 9.23,26.035 8.927,25.818 8.664,25.558 8.401,25.298 8.181,24.999 8.012,24.672 7.84,24.339 7.731,23.998 7.665,23.631 7.6,23.27 7.578,22.902 7.568,22.537 7.563,22.369 7.561,22.202 7.56,22.034 7.559,21.835 7.559,21.636 7.559,21.437 l 0,-2.286 0,-6.999 0,-1.459 c 0,-0.127 0,-0.254 10e-4,-0.381 C 7.561,10.205 7.562,10.098 7.565,9.991 7.571,9.758 7.585,9.523 7.627,9.293 7.67,9.059 7.739,8.841 7.849,8.629 7.957,8.42 8.097,8.229 8.265,8.063 8.433,7.897 8.626,7.758 8.838,7.652 9.052,7.544 9.273,7.475 9.51,7.433 9.744,7.391 9.982,7.378 10.218,7.371 10.326,7.368 10.435,7.367 10.543,7.366 10.672,7.365 10.8,7.365 10.929,7.365 l 1.478,0 17.722,0 -1.374,10e-4 1.478,-10e-4 c 0.129,0 0.257,0 0.386,10e-4 0.108,0.001 0.217,0.002 0.325,0.005 0.236,0.006 0.474,0.02 0.708,0.062 0.237,0.042 0.457,0.111 0.672,0.219 0.212,0.106 0.405,0.245 0.573,0.411 0.168,0.166 0.308,0.357 0.416,0.566 0.11,0.212 0.179,0.43 0.222,0.664 0.042,0.23 0.056,0.465 0.062,0.698 0.003,0.107 0.004,0.214 0.005,0.321 0.001,0.127 0.001,0.254 0.001,0.381 l 0,1.459 0,6.999 0,2.286 z"
         id="use5534"
         inkscape:connector-curvature="0" /></clipPath><linearGradient
       id="linearGradient6414"
       gradientUnits="userSpaceOnUse"
       x1="20.580601"
       y1="16.407801"
       x2="20.580601"
       y2="18.348499"><stop
         offset="0"
         style="stop-color:#D9D6CC"
         id="stop5538" /><stop
         offset="0.3051"
         style="stop-color:#C7C4BB"
         id="stop5540" /><stop
         offset="0.9176"
         style="stop-color:#979790"
         id="stop5542" /><stop
         offset="1"
         style="stop-color:#90908A"
         id="stop5544" /></linearGradient><clipPath
       id="clipPath6196"><path
         d="m 33.601,21.437 c 0,0.199 0,0.398 -10e-4,0.597 -0.001,0.168 -0.003,0.335 -0.008,0.503 -0.01,0.365 -0.032,0.733 -0.097,1.094 -0.067,0.367 -0.176,0.708 -0.347,1.041 -0.169,0.327 -0.389,0.627 -0.652,0.886 -0.263,0.26 -0.566,0.477 -0.898,0.644 -0.337,0.169 -0.683,0.277 -1.054,0.343 -0.366,0.065 -0.739,0.087 -1.109,0.096 -0.17,0.004 -0.34,0.007 -0.509,0.007 -0.202,0.001 -0.403,0.001 -0.605,0.001 l -0.168,0 -12.998,0 -2.316,0 c -0.202,0 -0.403,0 -0.605,-0.001 -0.17,-0.001 -0.34,-0.003 -0.509,-0.007 -0.37,-0.01 -0.743,-0.031 -1.109,-0.096 C 10.245,26.479 9.899,26.372 9.562,26.202 9.23,26.035 8.927,25.818 8.664,25.558 8.401,25.298 8.181,24.999 8.012,24.672 7.84,24.339 7.731,23.998 7.665,23.631 7.6,23.27 7.578,22.902 7.568,22.537 7.563,22.369 7.561,22.202 7.56,22.034 7.559,21.835 7.559,21.636 7.559,21.437 l 0,-2.286 0,-6.999 0,-1.459 c 0,-0.127 0,-0.254 10e-4,-0.381 C 7.561,10.205 7.562,10.098 7.565,9.991 7.571,9.758 7.585,9.523 7.627,9.293 7.67,9.059 7.739,8.841 7.849,8.629 7.957,8.42 8.097,8.229 8.265,8.063 8.433,7.897 8.626,7.758 8.838,7.652 9.052,7.544 9.273,7.475 9.51,7.433 9.744,7.391 9.982,7.378 10.218,7.371 10.326,7.368 10.435,7.367 10.543,7.366 10.672,7.365 10.8,7.365 10.929,7.365 l 1.478,0 17.722,0 -1.374,10e-4 1.478,-10e-4 c 0.129,0 0.257,0 0.386,10e-4 0.108,0.001 0.217,0.002 0.325,0.005 0.236,0.006 0.474,0.02 0.708,0.062 0.237,0.042 0.457,0.111 0.672,0.219 0.212,0.106 0.405,0.245 0.573,0.411 0.168,0.166 0.308,0.357 0.416,0.566 0.11,0.212 0.179,0.43 0.222,0.664 0.042,0.23 0.056,0.465 0.062,0.698 0.003,0.107 0.004,0.214 0.005,0.321 0.001,0.127 0.001,0.254 0.001,0.381 l 0,1.459 0,6.999 0,2.286 z"
         id="use6198"
         inkscape:connector-curvature="0" /></clipPath><clipPath
       id="clipPath6200"><path
         d="m 33.601,21.437 c 0,0.199 0,0.398 -10e-4,0.597 -0.001,0.168 -0.003,0.335 -0.008,0.503 -0.01,0.365 -0.032,0.733 -0.097,1.094 -0.067,0.367 -0.176,0.708 -0.347,1.041 -0.169,0.327 -0.389,0.627 -0.652,0.886 -0.263,0.26 -0.566,0.477 -0.898,0.644 -0.337,0.169 -0.683,0.277 -1.054,0.343 -0.366,0.065 -0.739,0.087 -1.109,0.096 -0.17,0.004 -0.34,0.007 -0.509,0.007 -0.202,0.001 -0.403,0.001 -0.605,0.001 l -0.168,0 -12.998,0 -2.316,0 c -0.202,0 -0.403,0 -0.605,-0.001 -0.17,-0.001 -0.34,-0.003 -0.509,-0.007 -0.37,-0.01 -0.743,-0.031 -1.109,-0.096 C 10.245,26.479 9.899,26.372 9.562,26.202 9.23,26.035 8.927,25.818 8.664,25.558 8.401,25.298 8.181,24.999 8.012,24.672 7.84,24.339 7.731,23.998 7.665,23.631 7.6,23.27 7.578,22.902 7.568,22.537 7.563,22.369 7.561,22.202 7.56,22.034 7.559,21.835 7.559,21.636 7.559,21.437 l 0,-2.286 0,-6.999 0,-1.459 c 0,-0.127 0,-0.254 10e-4,-0.381 C 7.561,10.205 7.562,10.098 7.565,9.991 7.571,9.758 7.585,9.523 7.627,9.293 7.67,9.059 7.739,8.841 7.849,8.629 7.957,8.42 8.097,8.229 8.265,8.063 8.433,7.897 8.626,7.758 8.838,7.652 9.052,7.544 9.273,7.475 9.51,7.433 9.744,7.391 9.982,7.378 10.218,7.371 10.326,7.368 10.435,7.367 10.543,7.366 10.672,7.365 10.8,7.365 10.929,7.365 l 1.478,0 17.722,0 -1.374,10e-4 1.478,-10e-4 c 0.129,0 0.257,0 0.386,10e-4 0.108,0.001 0.217,0.002 0.325,0.005 0.236,0.006 0.474,0.02 0.708,0.062 0.237,0.042 0.457,0.111 0.672,0.219 0.212,0.106 0.405,0.245 0.573,0.411 0.168,0.166 0.308,0.357 0.416,0.566 0.11,0.212 0.179,0.43 0.222,0.664 0.042,0.23 0.056,0.465 0.062,0.698 0.003,0.107 0.004,0.214 0.005,0.321 0.001,0.127 0.001,0.254 0.001,0.381 l 0,1.459 0,6.999 0,2.286 z"
         id="use6202"
         inkscape:connector-curvature="0" /></clipPath><clipPath
       id="blue_1_"><path
         d="m 8.644,20.764 0,-9.214 0,-0.936 c 0,-0.082 0,-0.163 0,-0.245 0,-0.069 10e-4,-0.137 0.003,-0.206 C 8.651,10.014 8.66,9.863 8.686,9.715 8.713,9.565 8.757,9.425 8.827,9.289 8.895,9.155 8.985,9.033 9.091,8.926 9.198,8.82 9.321,8.731 9.455,8.663 9.592,8.594 9.731,8.55 9.882,8.523 10.03,8.496 10.181,8.488 10.331,8.484 10.4,8.482 10.468,8.481 10.537,8.481 c 0.082,0 0.163,0 0.245,0 l 0.937,0 18.592,0 -0.869,0 0.937,0 c 0.082,0 0.163,0 0.245,0 0.069,0 0.138,10e-4 0.206,0.003 0.15,0.004 0.301,0.013 0.449,0.039 0.15,0.027 0.29,0.071 0.427,0.14 0.134,0.068 0.257,0.157 0.363,0.264 0.106,0.106 0.196,0.229 0.264,0.363 0.069,0.137 0.114,0.276 0.141,0.426 0.027,0.148 0.036,0.299 0.04,0.448 0.002,0.069 0.003,0.137 0.003,0.206 0,0.082 0,0.163 0,0.245 l 0,0.936 0,9.214 -23.873,0 z"
         id="use5554"
         inkscape:connector-curvature="0" /></clipPath><clipPath
       id="clipPath6206"><path
         d="m 8.644,20.764 0,-9.214 0,-0.936 c 0,-0.082 0,-0.163 0,-0.245 0,-0.069 10e-4,-0.137 0.003,-0.206 C 8.651,10.014 8.66,9.863 8.686,9.715 8.713,9.565 8.757,9.425 8.827,9.289 8.895,9.155 8.985,9.033 9.091,8.926 9.198,8.82 9.321,8.731 9.455,8.663 9.592,8.594 9.731,8.55 9.882,8.523 10.03,8.496 10.181,8.488 10.331,8.484 10.4,8.482 10.468,8.481 10.537,8.481 c 0.082,0 0.163,0 0.245,0 l 0.937,0 18.592,0 -0.869,0 0.937,0 c 0.082,0 0.163,0 0.245,0 0.069,0 0.138,10e-4 0.206,0.003 0.15,0.004 0.301,0.013 0.449,0.039 0.15,0.027 0.29,0.071 0.427,0.14 0.134,0.068 0.257,0.157 0.363,0.264 0.106,0.106 0.196,0.229 0.264,0.363 0.069,0.137 0.114,0.276 0.141,0.426 0.027,0.148 0.036,0.299 0.04,0.448 0.002,0.069 0.003,0.137 0.003,0.206 0,0.082 0,0.163 0,0.245 l 0,0.936 0,9.214 -23.873,0 z"
         id="use6208"
         inkscape:connector-curvature="0" /></clipPath><clipPath
       id="clipPath6210"><path
         d="m 8.644,20.764 0,-9.214 0,-0.936 c 0,-0.082 0,-0.163 0,-0.245 0,-0.069 10e-4,-0.137 0.003,-0.206 C 8.651,10.014 8.66,9.863 8.686,9.715 8.713,9.565 8.757,9.425 8.827,9.289 8.895,9.155 8.985,9.033 9.091,8.926 9.198,8.82 9.321,8.731 9.455,8.663 9.592,8.594 9.731,8.55 9.882,8.523 10.03,8.496 10.181,8.488 10.331,8.484 10.4,8.482 10.468,8.481 10.537,8.481 c 0.082,0 0.163,0 0.245,0 l 0.937,0 18.592,0 -0.869,0 0.937,0 c 0.082,0 0.163,0 0.245,0 0.069,0 0.138,10e-4 0.206,0.003 0.15,0.004 0.301,0.013 0.449,0.039 0.15,0.027 0.29,0.071 0.427,0.14 0.134,0.068 0.257,0.157 0.363,0.264 0.106,0.106 0.196,0.229 0.264,0.363 0.069,0.137 0.114,0.276 0.141,0.426 0.027,0.148 0.036,0.299 0.04,0.448 0.002,0.069 0.003,0.137 0.003,0.206 0,0.082 0,0.163 0,0.245 l 0,0.936 0,9.214 -23.873,0 z"
         id="use6212"
         inkscape:connector-curvature="0" /></clipPath><clipPath
       id="clipPath6214"><path
         d="m 8.644,20.764 0,-9.214 0,-0.936 c 0,-0.082 0,-0.163 0,-0.245 0,-0.069 10e-4,-0.137 0.003,-0.206 C 8.651,10.014 8.66,9.863 8.686,9.715 8.713,9.565 8.757,9.425 8.827,9.289 8.895,9.155 8.985,9.033 9.091,8.926 9.198,8.82 9.321,8.731 9.455,8.663 9.592,8.594 9.731,8.55 9.882,8.523 10.03,8.496 10.181,8.488 10.331,8.484 10.4,8.482 10.468,8.481 10.537,8.481 c 0.082,0 0.163,0 0.245,0 l 0.937,0 18.592,0 -0.869,0 0.937,0 c 0.082,0 0.163,0 0.245,0 0.069,0 0.138,10e-4 0.206,0.003 0.15,0.004 0.301,0.013 0.449,0.039 0.15,0.027 0.29,0.071 0.427,0.14 0.134,0.068 0.257,0.157 0.363,0.264 0.106,0.106 0.196,0.229 0.264,0.363 0.069,0.137 0.114,0.276 0.141,0.426 0.027,0.148 0.036,0.299 0.04,0.448 0.002,0.069 0.003,0.137 0.003,0.206 0,0.082 0,0.163 0,0.245 l 0,0.936 0,9.214 -23.873,0 z"
         id="use6216"
         inkscape:connector-curvature="0" /></clipPath><clipPath
       id="clipPath6218"><path
         d="m 8.644,20.764 0,-9.214 0,-0.936 c 0,-0.082 0,-0.163 0,-0.245 0,-0.069 10e-4,-0.137 0.003,-0.206 C 8.651,10.014 8.66,9.863 8.686,9.715 8.713,9.565 8.757,9.425 8.827,9.289 8.895,9.155 8.985,9.033 9.091,8.926 9.198,8.82 9.321,8.731 9.455,8.663 9.592,8.594 9.731,8.55 9.882,8.523 10.03,8.496 10.181,8.488 10.331,8.484 10.4,8.482 10.468,8.481 10.537,8.481 c 0.082,0 0.163,0 0.245,0 l 0.937,0 18.592,0 -0.869,0 0.937,0 c 0.082,0 0.163,0 0.245,0 0.069,0 0.138,10e-4 0.206,0.003 0.15,0.004 0.301,0.013 0.449,0.039 0.15,0.027 0.29,0.071 0.427,0.14 0.134,0.068 0.257,0.157 0.363,0.264 0.106,0.106 0.196,0.229 0.264,0.363 0.069,0.137 0.114,0.276 0.141,0.426 0.027,0.148 0.036,0.299 0.04,0.448 0.002,0.069 0.003,0.137 0.003,0.206 0,0.082 0,0.163 0,0.245 l 0,0.936 0,9.214 -23.873,0 z"
         id="use6220"
         inkscape:connector-curvature="0" /></clipPath><clipPath
       id="clipPath6222"><path
         d="m 8.644,20.764 0,-9.214 0,-0.936 c 0,-0.082 0,-0.163 0,-0.245 0,-0.069 10e-4,-0.137 0.003,-0.206 C 8.651,10.014 8.66,9.863 8.686,9.715 8.713,9.565 8.757,9.425 8.827,9.289 8.895,9.155 8.985,9.033 9.091,8.926 9.198,8.82 9.321,8.731 9.455,8.663 9.592,8.594 9.731,8.55 9.882,8.523 10.03,8.496 10.181,8.488 10.331,8.484 10.4,8.482 10.468,8.481 10.537,8.481 c 0.082,0 0.163,0 0.245,0 l 0.937,0 18.592,0 -0.869,0 0.937,0 c 0.082,0 0.163,0 0.245,0 0.069,0 0.138,10e-4 0.206,0.003 0.15,0.004 0.301,0.013 0.449,0.039 0.15,0.027 0.29,0.071 0.427,0.14 0.134,0.068 0.257,0.157 0.363,0.264 0.106,0.106 0.196,0.229 0.264,0.363 0.069,0.137 0.114,0.276 0.141,0.426 0.027,0.148 0.036,0.299 0.04,0.448 0.002,0.069 0.003,0.137 0.003,0.206 0,0.082 0,0.163 0,0.245 l 0,0.936 0,9.214 -23.873,0 z"
         id="use6224"
         inkscape:connector-curvature="0" /></clipPath><clipPath
       id="clipPath6226"><path
         d="m 8.644,20.764 0,-9.214 0,-0.936 c 0,-0.082 0,-0.163 0,-0.245 0,-0.069 10e-4,-0.137 0.003,-0.206 C 8.651,10.014 8.66,9.863 8.686,9.715 8.713,9.565 8.757,9.425 8.827,9.289 8.895,9.155 8.985,9.033 9.091,8.926 9.198,8.82 9.321,8.731 9.455,8.663 9.592,8.594 9.731,8.55 9.882,8.523 10.03,8.496 10.181,8.488 10.331,8.484 10.4,8.482 10.468,8.481 10.537,8.481 c 0.082,0 0.163,0 0.245,0 l 0.937,0 18.592,0 -0.869,0 0.937,0 c 0.082,0 0.163,0 0.245,0 0.069,0 0.138,10e-4 0.206,0.003 0.15,0.004 0.301,0.013 0.449,0.039 0.15,0.027 0.29,0.071 0.427,0.14 0.134,0.068 0.257,0.157 0.363,0.264 0.106,0.106 0.196,0.229 0.264,0.363 0.069,0.137 0.114,0.276 0.141,0.426 0.027,0.148 0.036,0.299 0.04,0.448 0.002,0.069 0.003,0.137 0.003,0.206 0,0.082 0,0.163 0,0.245 l 0,0.936 0,9.214 -23.873,0 z"
         id="use6228"
         inkscape:connector-curvature="0" /></clipPath><clipPath
       id="clipPath6230"><path
         d="m 33.601,21.437 c 0,0.199 0,0.398 -10e-4,0.597 -0.001,0.168 -0.003,0.335 -0.008,0.503 -0.01,0.365 -0.032,0.733 -0.097,1.094 -0.067,0.367 -0.176,0.708 -0.347,1.041 -0.169,0.327 -0.389,0.627 -0.652,0.886 -0.263,0.26 -0.566,0.477 -0.898,0.644 -0.337,0.169 -0.683,0.277 -1.054,0.343 -0.366,0.065 -0.739,0.087 -1.109,0.096 -0.17,0.004 -0.34,0.007 -0.509,0.007 -0.202,0.001 -0.403,0.001 -0.605,0.001 l -0.168,0 -12.998,0 -2.316,0 c -0.202,0 -0.403,0 -0.605,-0.001 -0.17,-0.001 -0.34,-0.003 -0.509,-0.007 -0.37,-0.01 -0.743,-0.031 -1.109,-0.096 C 10.245,26.479 9.899,26.372 9.562,26.202 9.23,26.035 8.927,25.818 8.664,25.558 8.401,25.298 8.181,24.999 8.012,24.672 7.84,24.339 7.731,23.998 7.665,23.631 7.6,23.27 7.578,22.902 7.568,22.537 7.563,22.369 7.561,22.202 7.56,22.034 7.559,21.835 7.559,21.636 7.559,21.437 l 0,-2.286 0,-6.999 0,-1.459 c 0,-0.127 0,-0.254 10e-4,-0.381 C 7.561,10.205 7.562,10.098 7.565,9.991 7.571,9.758 7.585,9.523 7.627,9.293 7.67,9.059 7.739,8.841 7.849,8.629 7.957,8.42 8.097,8.229 8.265,8.063 8.433,7.897 8.626,7.758 8.838,7.652 9.052,7.544 9.273,7.475 9.51,7.433 9.744,7.391 9.982,7.378 10.218,7.371 10.326,7.368 10.435,7.367 10.543,7.366 10.672,7.365 10.8,7.365 10.929,7.365 l 1.478,0 17.722,0 -1.374,10e-4 1.478,-10e-4 c 0.129,0 0.257,0 0.386,10e-4 0.108,0.001 0.217,0.002 0.325,0.005 0.236,0.006 0.474,0.02 0.708,0.062 0.237,0.042 0.457,0.111 0.672,0.219 0.212,0.106 0.405,0.245 0.573,0.411 0.168,0.166 0.308,0.357 0.416,0.566 0.11,0.212 0.179,0.43 0.222,0.664 0.042,0.23 0.056,0.465 0.062,0.698 0.003,0.107 0.004,0.214 0.005,0.321 0.001,0.127 0.001,0.254 0.001,0.381 l 0,1.459 0,6.999 0,2.286 z"
         id="use6232"
         inkscape:connector-curvature="0" /></clipPath><clipPath
       id="clipPath6234"><path
         d="m 33.601,21.437 c 0,0.199 0,0.398 -10e-4,0.597 -0.001,0.168 -0.003,0.335 -0.008,0.503 -0.01,0.365 -0.032,0.733 -0.097,1.094 -0.067,0.367 -0.176,0.708 -0.347,1.041 -0.169,0.327 -0.389,0.627 -0.652,0.886 -0.263,0.26 -0.566,0.477 -0.898,0.644 -0.337,0.169 -0.683,0.277 -1.054,0.343 -0.366,0.065 -0.739,0.087 -1.109,0.096 -0.17,0.004 -0.34,0.007 -0.509,0.007 -0.202,0.001 -0.403,0.001 -0.605,0.001 l -0.168,0 -12.998,0 -2.316,0 c -0.202,0 -0.403,0 -0.605,-0.001 -0.17,-0.001 -0.34,-0.003 -0.509,-0.007 -0.37,-0.01 -0.743,-0.031 -1.109,-0.096 C 10.245,26.479 9.899,26.372 9.562,26.202 9.23,26.035 8.927,25.818 8.664,25.558 8.401,25.298 8.181,24.999 8.012,24.672 7.84,24.339 7.731,23.998 7.665,23.631 7.6,23.27 7.578,22.902 7.568,22.537 7.563,22.369 7.561,22.202 7.56,22.034 7.559,21.835 7.559,21.636 7.559,21.437 l 0,-2.286 0,-6.999 0,-1.459 c 0,-0.127 0,-0.254 10e-4,-0.381 C 7.561,10.205 7.562,10.098 7.565,9.991 7.571,9.758 7.585,9.523 7.627,9.293 7.67,9.059 7.739,8.841 7.849,8.629 7.957,8.42 8.097,8.229 8.265,8.063 8.433,7.897 8.626,7.758 8.838,7.652 9.052,7.544 9.273,7.475 9.51,7.433 9.744,7.391 9.982,7.378 10.218,7.371 10.326,7.368 10.435,7.367 10.543,7.366 10.672,7.365 10.8,7.365 10.929,7.365 l 1.478,0 17.722,0 -1.374,10e-4 1.478,-10e-4 c 0.129,0 0.257,0 0.386,10e-4 0.108,0.001 0.217,0.002 0.325,0.005 0.236,0.006 0.474,0.02 0.708,0.062 0.237,0.042 0.457,0.111 0.672,0.219 0.212,0.106 0.405,0.245 0.573,0.411 0.168,0.166 0.308,0.357 0.416,0.566 0.11,0.212 0.179,0.43 0.222,0.664 0.042,0.23 0.056,0.465 0.062,0.698 0.003,0.107 0.004,0.214 0.005,0.321 0.001,0.127 0.001,0.254 0.001,0.381 l 0,1.459 0,6.999 0,2.286 z"
         id="use6236"
         inkscape:connector-curvature="0" /></clipPath></defs><sodipodi:namedview
     pagecolor="#ffffff"
     bordercolor="#666666"
     borderopacity="1"
     objecttolerance="10"
     gridtolerance="10"
     guidetolerance="10"
     inkscape:pageopacity="0"
     inkscape:pageshadow="2"
     inkscape:window-width="1440"
     inkscape:window-height="882"
     id="namedview120"
     showgrid="false"
     inkscape:zoom="5.1638479"
     inkscape:cx="39.136528"
     inkscape:cy="4.9527892"
     inkscape:window-x="0"
     inkscape:window-y="18"
     inkscape:window-maximized="0"
     inkscape:current-layer="US" /><g
     id="g3"><g
       id="g5"><g
         id="g7"
         style="fill:#cb7972;fill-opacity:1"><path
           fill="#A6A6A6"
           d="M99.846,0H10.255C9.858,0,9.469,0,9.076,0.002C8.749,0.005,8.421,0.009,8.087,0.016     c-0.714,0.02-1.439,0.061-2.155,0.19C5.214,0.332,4.545,0.548,3.889,0.881C3.245,1.209,2.657,1.639,2.15,2.148     C1.636,2.657,1.208,3.247,0.882,3.89C0.548,4.543,0.336,5.217,0.21,5.937C0.08,6.649,0.036,7.369,0.019,8.09     C0.008,8.419,0.006,8.75,0,9.078c0,0.391,0,0.782,0,1.174v13.511c0,0.397,0,0.785,0,1.176c0.006,0.334,0.008,0.659,0.019,0.991     c0.017,0.72,0.061,1.441,0.191,2.153c0.126,0.72,0.338,1.395,0.672,2.048c0.326,0.64,0.754,1.231,1.268,1.738     c0.506,0.511,1.094,0.941,1.739,1.267c0.655,0.335,1.325,0.547,2.043,0.676c0.716,0.13,1.441,0.17,2.155,0.192     c0.334,0.007,0.661,0.009,0.989,0.009c0.393,0.002,0.781,0.002,1.178,0.002h89.591c0.384,0,0.779,0,1.166-0.002     c0.328,0,0.662-0.002,0.991-0.009c0.72-0.022,1.443-0.062,2.146-0.192c0.724-0.129,1.394-0.341,2.054-0.676     c0.643-0.327,1.235-0.756,1.739-1.267c0.512-0.507,0.939-1.097,1.271-1.738c0.332-0.653,0.544-1.327,0.67-2.048     c0.128-0.712,0.172-1.432,0.195-2.153c0.004-0.332,0.004-0.657,0.004-0.991c0.013-0.391,0.013-0.779,0.013-1.176V10.253     c0-0.393,0-0.784-0.013-1.174c0-0.328,0-0.659-0.004-0.989c-0.023-0.721-0.067-1.441-0.195-2.153     c-0.126-0.72-0.338-1.393-0.67-2.047c-0.332-0.643-0.758-1.233-1.271-1.742c-0.504-0.509-1.096-0.939-1.739-1.267     c-0.659-0.333-1.329-0.549-2.054-0.675c-0.704-0.128-1.426-0.17-2.146-0.19c-0.33-0.007-0.664-0.011-0.991-0.014     C100.625,0,100.23,0,99.846,0L99.846,0z"
           id="path9"
           style="fill:#cb7972;fill-opacity:1" /><path
           d="M99.846,0.664c0.382,0,0.775,0,1.157,0.002l0.057,0.001l0.922,0.013c0.577,0.017,1.327,0.051,2.054,0.18     c0.674,0.119,1.285,0.32,1.863,0.614c0.586,0.298,1.113,0.682,1.573,1.146c0.462,0.46,0.846,0.99,1.147,1.571     c0.296,0.579,0.491,1.189,0.607,1.869c0.13,0.703,0.17,1.433,0.187,2.045c0.006,0.325,0.006,0.651,0.006,0.991     c0.008,0.386,0.008,0.771,0.008,1.159v13.511c0,0.393,0,0.775-0.008,1.176c0,0.33,0,0.653-0.006,0.97     c-0.017,0.622-0.057,1.35-0.187,2.06c-0.116,0.67-0.311,1.28-0.601,1.856c-0.307,0.584-0.691,1.113-1.155,1.575     c-0.458,0.461-0.985,0.845-1.571,1.142c-0.567,0.29-1.178,0.491-1.863,0.616c-0.71,0.125-1.436,0.161-2.045,0.181     c-0.328,0.007-0.655,0.009-0.985,0.009c-0.384,0.002-0.777,0.002-1.159,0.002H10.255c-0.393,0-0.783,0-1.178-0.002     c-0.325,0-0.647-0.002-0.968-0.009c-0.617-0.02-1.344-0.056-2.058-0.181c-0.683-0.125-1.292-0.327-1.859-0.616     c-0.58-0.293-1.107-0.679-1.575-1.149c-0.46-0.453-0.842-0.981-1.142-1.567c-0.29-0.571-0.489-1.177-0.611-1.865     c-0.134-0.735-0.166-1.479-0.181-2.054c-0.006-0.227-0.011-0.456-0.013-0.685l-0.004-0.286v-1.176V10.253V9.089L0.67,8.791     c0.002-0.227,0.006-0.454,0.013-0.685c0.015-0.568,0.046-1.312,0.183-2.053c0.12-0.686,0.319-1.294,0.611-1.862     c0.298-0.587,0.68-1.114,1.145-1.572c0.464-0.466,0.991-0.85,1.573-1.146C4.767,1.18,5.378,0.979,6.05,0.859     c0.729-0.129,1.48-0.162,2.05-0.18l0.976-0.014c0.395-0.002,0.785-0.002,1.178-0.002H99.846"
           id="path11"
           style="fill:#cb7972;fill-opacity:1" /></g><g
         id="g13"><defs
           id="defs15"><path
             id="SVGID_1_"
             d="M33.601,21.437c0,0.199,0,0.398-0.001,0.597c-0.001,0.168-0.003,0.335-0.008,0.503      c-0.01,0.365-0.032,0.733-0.097,1.094c-0.067,0.367-0.176,0.708-0.347,1.041c-0.169,0.327-0.389,0.627-0.652,0.886      c-0.263,0.26-0.566,0.477-0.898,0.644c-0.337,0.169-0.683,0.277-1.054,0.343c-0.366,0.065-0.739,0.087-1.109,0.096      c-0.17,0.004-0.34,0.007-0.509,0.007c-0.202,0.001-0.403,0.001-0.605,0.001l-0.168,0H15.155l-2.316,0      c-0.202,0-0.403,0-0.605-0.001c-0.17-0.001-0.34-0.003-0.509-0.007c-0.37-0.01-0.743-0.031-1.109-0.096      c-0.371-0.066-0.717-0.173-1.054-0.343c-0.332-0.167-0.635-0.384-0.898-0.644c-0.263-0.26-0.483-0.559-0.652-0.886      c-0.172-0.333-0.281-0.674-0.347-1.041C7.6,23.27,7.578,22.902,7.568,22.537c-0.005-0.168-0.007-0.335-0.008-0.503      c-0.001-0.199-0.001-0.398-0.001-0.597l0-2.286v-6.999v-1.459c0-0.127,0-0.254,0.001-0.381c0.001-0.107,0.002-0.214,0.005-0.321      c0.006-0.233,0.02-0.468,0.062-0.698c0.043-0.234,0.112-0.452,0.222-0.664c0.108-0.209,0.248-0.4,0.416-0.566      c0.168-0.166,0.361-0.305,0.573-0.411C9.052,7.544,9.273,7.475,9.51,7.433c0.234-0.042,0.472-0.055,0.708-0.062      c0.108-0.003,0.217-0.004,0.325-0.005c0.129-0.001,0.257-0.001,0.386-0.001h1.478h17.722l-1.374,0.001l1.478-0.001      c0.129,0,0.257,0,0.386,0.001c0.108,0.001,0.217,0.002,0.325,0.005c0.236,0.006,0.474,0.02,0.708,0.062      c0.237,0.042,0.457,0.111,0.672,0.219c0.212,0.106,0.405,0.245,0.573,0.411c0.168,0.166,0.308,0.357,0.416,0.566      c0.11,0.212,0.179,0.43,0.222,0.664c0.042,0.23,0.056,0.465,0.062,0.698c0.003,0.107,0.004,0.214,0.005,0.321      c0.001,0.127,0.001,0.254,0.001,0.381v1.459v6.999V21.437z" /></defs><clipPath
           id="SVGID_2_"><use
             xlink:href="#SVGID_1_"
             overflow="visible"
             id="use19" /></clipPath><linearGradient
           id="SVGID_3_"
           gradientUnits="userSpaceOnUse"
           x1="20.5806"
           y1="16.4078"
           x2="20.5806"
           y2="18.3485"><stop
             offset="0"
             style="stop-color:#D9D6CC"
             id="stop23" /><stop
             offset="0.3051"
             style="stop-color:#C7C4BB"
             id="stop25" /><stop
             offset="0.9176"
             style="stop-color:#979790"
             id="stop27" /><stop
             offset="1"
             style="stop-color:#90908A"
             id="stop29" /></linearGradient><g
           transform="matrix(0.4776316,0,0,0.4776316,8.0095704,5.9402056)"
           id="g3095"
           style="fill:#ffffff;fill-opacity:1"><path
             inkscape:connector-curvature="0"
             sodipodi:nodetypes="ccccccccc"
             id="path13"
             d="m 41,42 c 0,0.4 -0.6,1 -1,1 L 8,43 C 7.6,43 7,42.4 7,42 l 0,-2 c 0,-0.4 0.5,-0.7 0.9,-0.7 l 31.9,0 c 0.4,0 1.2,0.3 1.2,0.7 l 0,2 z"
             style="fill:#ffffff;fill-opacity:1;fill-rule:nonzero;stroke:none;stroke-width:7.43289995;stroke-linejoin:round;stroke-miterlimit:4" /><path
             inkscape:connector-curvature="0"
             sodipodi:nodetypes="ccccccccc"
             id="path15"
             d="m 44,39 c 0,0.4 -0.6,1 -1,1 L 5,40 C 4.6,40 4,39.4 4,39 L 4,25 c 0,-0.4 0.6,-1 1,-1 l 38,0 c 0.4,0 1,0.6 1,1 l 0,14 z"
             style="fill:#ffffff;fill-opacity:1;fill-rule:nonzero;stroke:none;stroke-width:7.43289995;stroke-linejoin:round;stroke-miterlimit:4" /><path
             inkscape:connector-curvature="0"
             sodipodi:nodetypes="ccccccc"
             id="path17"
             d="M 12,4 C 9,4 8,6 8,8 L 8,26 40,26 40,8 C 40,6 39,4 36,4 L 12,4 Z"
             style="fill:#ffffff;fill-opacity:1;fill-rule:nonzero;stroke:none;stroke-width:7.43289995;stroke-linejoin:round;stroke-miterlimit:4" /></g><path
           inkscape:connector-curvature="0"
           style="fill:#cb7972;fill-rule:nonzero;stroke:none;stroke-width:7.43289995;stroke-linejoin:round;stroke-miterlimit:4;fill-opacity:1"
           d="m 25.204307,17.403365 -11.463158,0 0,-7.164475 c 0,0 0,-0.4776313 0.477631,-0.4776313 l 10.507896,0 c 0.477631,0 0.477631,0.4776313 0.477631,0.4776313 l 0,7.164475 z"
           id="path19"
           sodipodi:nodetypes="ccccccc" /><path
           inkscape:connector-curvature="0"
           style="fill:#cb7972;fill-opacity:1;fill-rule:evenodd;stroke:#cb7972;stroke-width:1.91052628;stroke-linecap:butt;stroke-linejoin:miter;stroke-miterlimit:4;stroke-dasharray:none;stroke-opacity:1"
           d="m 13.263518,23.612574 12.418421,0"
           id="path1315"
           sodipodi:nodetypes="cc" /></g></g><g
       id="g82" /></g><text
     xml:space="preserve"
     style="font-style:normal;font-variant:normal;font-weight:bold;font-stretch:normal;font-size:13.28015709px;line-height:125%;font-family:Helvetica;-inkscape-font-specification:'Helvetica Bold';letter-spacing:0px;word-spacing:0px;fill:#ffffff;fill-opacity:1;stroke:none;stroke-width:1px;stroke-linecap:butt;stroke-linejoin:miter;stroke-opacity:1"
     x="35.724682"
     y="21.40172"
     id="text4252"
     sodipodi:linespacing="125%"><tspan
       sodipodi:role="line"
       id="tspan4254"
       x="35.724682"
       y="21.40172"
       style="font-style:normal;font-variant:normal;font-weight:normal;font-stretch:normal;font-size:13.28013611px;line-height:125%;font-family:'Proxima Nova';-inkscape-font-specification:'Proxima Nova';text-align:start;writing-mode:lr-tb;text-anchor:start">Print Ticket</tspan></text>
</svg>